<svg width="709" height="177" viewBox="0 0 709 177" fill="none" xmlns="http://www.w3.org/2000/svg">
<path d="M28.8106 0.00123141C28.8106 0.00123141 132.296 0.00123141 147.972 0.00123141C155.592 0.00123141 160.889 2.38237 164.663 5.05213C168.654 7.86621 170.904 10.9689 171.412 11.5462C171.993 12.2677 177 19.0503 177 27.709C177 27.709 177 141.354 177 148.786C177 156.291 173.807 163.867 167.929 169.351C162.994 173.897 156.172 176.999 147.899 176.999C129.684 176.999 43.9779 176.927 29.8266 176.999C17.8524 177.071 9.21648 171.515 3.84625 162.64C1.01599 158.022 0.0725707 152.755 0 146.333C0 146.333 0.0725696 40.192 0.0725696 29.8016C0.0725696 20.1327 3.33826 13.4944 8.56335 8.29914C13.7159 3.03177 20.6827 -0.0709243 28.8106 0.00123141Z" fill="url(#paint0_linear)"/>
<path d="M69.3773 61.044C69.3047 55.8488 70.9013 45.2419 78.8115 36.4389C84.6172 30.017 93.3982 24.1003 107.404 23.8838C118.072 23.9559 127.434 28.4296 133.82 34.4907C141.44 41.7063 145.141 51.303 145.214 61.1162C145.214 61.1162 145.286 91.3494 145.359 103.255C145.359 115.81 141.222 125.407 134.836 132.262C126.418 141.281 114.081 145.755 98.0428 145.755C98.0428 145.755 80.8435 145.827 61.2494 145.683C54.7906 145.683 49.3478 144.167 44.7033 142.003C39.841 139.766 35.8496 136.735 32.5114 133.128C25.8349 125.84 22.7869 116.676 22.8595 107.657C22.8595 100.802 25.3269 91.7824 30.8423 84.5668C37.2285 76.1967 47.8238 70.1356 61.1768 70.2078H69.5225L69.3773 61.044ZM60.7414 83.8452C46.5175 83.7731 36.1399 95.0294 36.3576 108.017C36.5028 115.738 39.9136 122.376 45.2113 126.561C50.3638 130.674 56.5323 132.262 61.9751 132.262C78.6664 132.334 65.6762 132.262 93.6885 132.262C121.701 132.262 131.425 118.119 131.643 97.4827C131.716 87.5252 131.425 75.1865 131.643 63.7859C131.788 55.8488 129.466 47.9117 122.354 42.6443C118.725 39.9745 113.283 37.3769 107.404 37.4491C98.7685 37.5934 92.4548 41.4898 88.4634 46.6128C84.2543 51.8802 82.7303 58.5186 82.7303 64.0024C82.7303 74.7536 82.7303 83.7731 82.7303 83.7731C82.7303 83.7731 74.9653 83.9174 60.7414 83.8452Z" fill="url(#paint1_linear)"/>
<path d="M81.5682 73.1671C81.4957 67.9718 83.0922 57.3649 91.0024 48.5619C96.8081 42.1401 105.589 36.2233 119.595 36.0068C130.263 36.079 139.625 40.5526 146.011 46.6137C153.631 53.8293 157.332 63.426 157.405 73.2392C157.405 73.2392 157.477 103.472 157.55 115.378C157.55 127.933 153.413 137.53 147.027 144.385C138.609 153.404 126.272 157.878 110.234 157.878C110.234 157.878 93.0344 157.95 73.4403 157.806C66.9815 157.806 61.5387 156.29 56.8942 154.126C52.0319 151.889 48.0406 148.858 44.7023 145.251C38.0258 137.963 34.9778 128.799 35.0504 119.78C35.0504 112.925 37.5178 103.905 43.0332 96.6898C49.4194 88.3198 60.0147 82.2587 73.3677 82.3308H81.7134L81.5682 73.1671ZM72.8597 95.9683C58.6359 95.8961 48.2583 107.152 48.476 120.14C48.6211 127.861 52.0319 134.499 57.3296 138.684C62.4821 142.797 68.6507 144.385 74.0935 144.385C90.7847 144.457 77.7946 144.385 105.807 144.385C133.819 144.385 143.544 130.242 143.761 109.606C143.834 99.6482 143.544 87.3096 143.761 75.909C143.907 67.9718 141.584 60.0347 134.472 54.7673C130.844 52.0976 125.401 49.5 119.523 49.5721C110.887 49.7164 104.573 53.6128 100.582 58.7359C96.3727 64.0033 94.8487 70.6416 94.8487 76.1254C94.8487 86.8767 94.8487 95.8961 94.8487 95.8961C94.8487 95.8961 87.1562 96.0404 72.8597 95.9683Z" fill="url(#paint2_linear)"/>
<path d="M75.6172 67.2507C75.5447 62.0555 77.1412 51.4486 85.0514 42.6456C90.8571 36.2237 99.6382 30.3069 113.644 30.0905C124.312 30.1626 133.674 34.6363 140.06 40.6973C147.68 47.9129 151.381 57.5096 151.454 67.3228C151.454 67.3228 151.526 97.5561 151.599 109.462C151.599 122.017 147.462 131.614 141.076 138.468C132.658 147.488 120.321 151.962 104.283 151.962C104.283 151.962 87.0834 152.034 67.4893 151.889C61.0305 151.889 55.5877 150.374 50.9432 148.209C46.081 145.973 42.0896 142.942 38.7513 139.334C32.0748 132.047 29.0268 122.883 29.0994 113.863C29.0994 107.009 31.5668 97.989 37.0822 90.7735C43.4684 82.4034 54.0637 76.3423 67.4168 76.4145H75.7624L75.6172 67.2507ZM66.9813 90.0519C52.7575 89.9797 42.3799 101.236 42.5976 114.224C42.7427 121.945 46.1535 128.583 51.4512 132.768C56.6037 136.881 62.7722 138.468 68.215 138.468C84.9063 138.541 71.9161 138.468 99.9284 138.468C127.941 138.468 137.665 124.326 137.883 103.689C137.956 93.7318 137.665 81.3932 137.883 69.9926C138.028 62.0555 135.706 54.1183 128.594 48.851C124.965 46.1812 119.523 43.5836 113.644 43.6557C105.008 43.8001 98.6947 47.6965 94.7034 52.8195C90.4942 58.0869 88.9703 64.7252 88.9703 70.2091C88.9703 80.9603 88.9703 89.9797 88.9703 89.9797C88.9703 89.9797 81.2052 90.1241 66.9813 90.0519Z" fill="white"/>
<path fill-rule="evenodd" clip-rule="evenodd" d="M267.914 34.8957C268.619 26.1942 273.626 21.7295 278.658 21.7295C285.492 21.731 292.37 29.9709 288.558 47.0248C287.923 49.7476 290.661 51.2511 294.171 51.2511C299.682 51.2511 307.095 47.5472 306.336 39.0521C305.496 26.7788 299.263 19.3878 291.065 15.9239C286.719 14.1076 282.477 13.2845 278.447 13.2845C255.727 13.2845 239.785 39.4986 250.153 62.021C261.185 86.229 292.775 104.855 291.943 128.151C291.37 147.425 278.83 158.923 268.013 158.923C256.098 158.923 246.276 144.968 256.847 112.088C257.94 108.909 252.576 106.356 246.643 106.356C241.348 106.356 235.598 108.391 233.583 113.833C227.673 129.152 229.919 142.3 235.583 151.433C242.637 162.868 255.168 168.153 268.367 168.153C291.964 168.153 317.686 151.246 317.982 122.359C318.256 87.6078 264.951 68.7104 267.914 34.8957" fill="black"/>
<path fill-rule="evenodd" clip-rule="evenodd" d="M348.496 133.005C347.691 133.005 346.849 132.753 345.975 132.213C336.786 126.547 343.354 86.7383 353.032 86.7383C353.512 86.7383 354.002 86.8355 354.496 87.0405C363.302 90.6228 358.944 133.005 348.496 133.005M399.569 116.973C397.271 124.566 393.634 131.656 389.631 131.656C388.498 131.656 387.335 131.087 386.165 129.801C380.378 123.371 385.36 80.7711 385.04 77.7172C384.727 74.5904 379.818 73.2115 374.872 73.2115C369.646 73.2115 364.381 74.7514 364.463 77.3953L364.946 92.3444C364.525 79.3178 354.706 74.3475 345.593 74.3475C344.247 74.3475 342.917 74.4553 341.635 74.6618C324.114 77.3953 314.79 132.373 332.472 141.536C335.707 143.227 339.508 144.322 343.377 144.322C352.39 144.322 361.78 138.376 365.266 120.156C365.771 133.482 375.084 140.642 385.531 140.642C391.259 140.642 397.321 138.473 402.464 134.003C401.986 132.388 401.553 130.675 401.196 128.812C400.612 126.001 400.038 121.933 399.569 116.973" fill="black"/>
<path fill-rule="evenodd" clip-rule="evenodd" d="M435.321 24.0299C435.646 24.0299 435.98 24.0815 436.321 24.1848C443.715 26.4353 446.93 70.3229 421.852 85.9143C422.478 78.8954 424.615 24.0299 435.321 24.0299M430.373 136.071C429.362 136.959 428.458 137.366 427.652 137.366C421.155 137.366 420.994 110.898 421.852 95.8823C447.734 85.7547 461.239 56.8178 456.255 32.5445C453.529 19.3069 444.735 13.2735 435.345 13.275C425.351 13.2765 414.682 20.1163 409.957 32.3836C402.686 51.5361 400.964 78.5733 401.543 99.8808C402.997 99.3037 404.803 99.1685 406.147 99.1685C408.958 99.1685 414.158 99.8489 417.412 104.405L418.059 105.311L417.968 106.421C416.891 119.427 412.177 128.818 405.954 134.925C407.436 139.161 409.441 142.424 412.047 144.269C416.036 146.928 420.627 148.661 425.333 148.661C431.611 148.661 438.092 145.571 443.615 137.483C440.832 132.62 439.559 126.175 439.301 119.498C436.984 126.414 434.117 132.796 430.373 136.071" fill="black"/>
<path fill-rule="evenodd" clip-rule="evenodd" d="M406.148 102.207C403.841 102.207 402.081 102.758 402.081 103.116C402.064 104.161 401.97 105.355 401.811 106.644C402.291 115.798 403.18 123.434 404.171 128.194C404.395 129.368 404.657 130.483 404.937 131.567C410.125 125.9 414.002 117.522 414.94 106.17C412.714 103.054 409.01 102.207 406.148 102.207" fill="black"/>
<path fill-rule="evenodd" clip-rule="evenodd" d="M417.967 106.421L418.059 105.311L417.412 104.405C414.159 99.8496 408.958 99.1693 406.148 99.1693C404.803 99.1693 402.997 99.3029 401.542 99.88C401.557 100.434 401.571 100.992 401.589 101.537C402.866 100.799 405.015 100.688 406.15 100.688C408.668 100.688 413.317 101.285 416.175 105.288L416.499 105.74L416.455 106.295C415.443 118.515 411.138 127.426 405.415 133.314C405.583 133.872 405.768 134.398 405.954 134.926C412.179 128.817 416.892 119.427 417.967 106.421" fill="black"/>
<path fill-rule="evenodd" clip-rule="evenodd" d="M416.499 105.74L416.176 105.287C413.318 101.284 408.668 100.689 406.15 100.689C405.016 100.689 402.867 100.798 401.59 101.538C401.648 103.287 401.723 104.986 401.81 106.643C401.971 105.355 402.065 104.16 402.08 103.115C402.08 102.757 403.842 102.206 406.149 102.206C409.011 102.206 412.715 103.055 414.941 106.171C414.003 117.522 410.126 125.899 404.937 131.568C405.09 132.16 405.245 132.749 405.415 133.314C411.139 127.425 415.444 118.514 416.455 106.294L416.499 105.74Z" fill="black"/>
<path fill-rule="evenodd" clip-rule="evenodd" d="M467.778 133.005C466.973 133.005 466.132 132.753 465.257 132.213C456.067 126.547 462.636 86.7383 472.314 86.7383C472.794 86.7383 473.283 86.8355 473.777 87.0405C482.585 90.6228 478.226 133.005 467.778 133.005M518.006 119.567C515.712 126.106 512.454 131.656 508.911 131.656C507.779 131.656 506.615 131.087 505.448 129.801C499.659 123.371 504.643 80.7711 504.322 77.7172C504.009 74.5904 499.098 73.2115 494.154 73.2115C488.927 73.2115 483.662 74.7514 483.745 77.3953L484.228 92.3444C483.807 79.3178 473.988 74.3475 464.875 74.3475C463.53 74.3475 462.199 74.4553 460.918 74.6618C453.022 75.8934 446.804 87.737 443.958 101.211C444.661 101.047 445.451 100.953 446.336 100.953C448.292 100.953 453.224 101.474 456.773 106.3L457.56 107.369L457.309 108.672C454.79 121.798 451.194 130.999 447.206 137.426C448.462 139.192 449.962 140.609 451.754 141.536C454.989 143.227 458.789 144.322 462.658 144.322C471.672 144.322 481.062 138.376 484.549 120.156C485.053 133.482 494.366 140.642 504.813 140.642C509.956 140.642 515.364 138.871 520.14 135.28C519.806 134.226 519.525 133.117 519.332 131.922C518.694 128.211 518.281 123.916 518.006 119.567" fill="black"/>
<path fill-rule="evenodd" clip-rule="evenodd" d="M446.336 103.99C444.749 103.99 443.621 104.397 443.555 104.723C443.364 105.451 443.167 106.197 442.965 106.954C441.586 117.141 442.19 127.525 445.487 134.483C449.045 128.248 452.11 119.65 454.327 108.099C451.941 104.856 448.65 103.99 446.336 103.99" fill="black"/>
<path fill-rule="evenodd" clip-rule="evenodd" d="M457.56 107.369L456.773 106.3C453.224 101.474 448.292 100.953 446.336 100.953C445.45 100.953 444.661 101.047 443.958 101.212C443.839 101.768 443.716 102.322 443.611 102.883C444.553 102.541 445.687 102.471 446.337 102.471C448.062 102.471 452.412 102.931 455.551 107.199L455.942 107.735L455.818 108.385C453.409 120.937 450.031 129.801 446.293 136.032C446.579 136.523 446.889 136.98 447.206 137.426C451.194 130.998 454.791 121.798 457.309 108.672L457.56 107.369Z" fill="black"/>
<path fill-rule="evenodd" clip-rule="evenodd" d="M455.943 107.735L455.55 107.199C452.412 102.933 448.063 102.471 446.338 102.471C445.686 102.471 444.552 102.541 443.61 102.884C443.357 104.231 443.149 105.592 442.965 106.956C443.165 106.198 443.364 105.451 443.556 104.723C443.621 104.397 444.749 103.99 446.336 103.99C448.651 103.99 451.941 104.857 454.327 108.099C452.11 119.65 449.045 128.248 445.487 134.485C445.741 135.019 446.008 135.539 446.294 136.032C450.031 129.803 453.41 120.939 455.818 108.386L455.943 107.735Z" fill="black"/>
<path fill-rule="evenodd" clip-rule="evenodd" d="M616.529 139.286C616.309 139.336 616.101 139.36 615.905 139.36C609.202 139.36 615.756 110.695 616.851 95.0781C617.604 84.4008 608.936 79.0249 599.97 79.0249C597.463 79.0249 594.93 79.4456 592.576 80.2884C589.039 81.4137 585.663 85.1115 582.609 90.7379C583.896 78.258 577.461 70.413 567.095 70.413C564.508 70.413 561.675 70.902 558.656 71.93C552.225 74.1806 544.67 83.6643 541.937 100.062C541.937 94.1138 541.777 89.4516 541.777 88.3264C541.448 85.0264 537.899 83.8435 533.565 83.8435C529.457 83.8435 524.643 84.9065 521.2 86.2368C520.985 86.2368 520.641 92.097 520.572 99.9907C522.064 99.3225 524.004 99.1692 525.43 99.1692C528.239 99.1692 533.44 99.8495 536.693 104.405L537.34 105.312L537.249 106.42C536.09 120.442 530.699 130.253 523.748 136.285C526.617 142.724 532.417 144.862 536.635 144.862C539.451 144.862 541.56 143.913 541.616 142.662C543.546 131.731 551.1 88.1654 559.299 82.2186C559.947 81.722 560.523 81.4805 561.016 81.4805C562.6 81.4805 563.326 83.9877 562.836 88.6483C561.388 100.544 556.084 121.764 562.514 133.016C563.473 134.695 566.778 136.533 570.195 136.533C573.648 136.533 577.217 134.656 578.59 128.837C578.59 128.516 578.752 128.355 578.752 128.194C578.912 127.069 579.073 125.622 579.073 124.015C580.681 115.013 585.663 100.704 589.36 94.9171C591.183 91.8571 592.905 90.3491 594.215 90.3491C595.794 90.3491 596.77 92.5405 596.594 96.8472C595.792 113.565 586.306 147.324 608.652 150.218C610.281 150.433 611.809 150.542 613.249 150.542C626.353 150.542 631.996 141.523 638.022 122.706C634.884 118.881 631.684 114.7 629.388 109.793C626.773 120.126 621.47 138.202 616.529 139.286" fill="black"/>
<path fill-rule="evenodd" clip-rule="evenodd" d="M534.222 106.17C531.996 103.054 528.292 102.207 525.43 102.207C523.123 102.207 521.363 102.756 521.363 103.115C521.334 104.926 521.076 107.181 520.631 109.619C520.798 117.244 521.278 125.306 522.325 131.409C522.423 132.008 522.543 132.579 522.678 133.13C528.632 127.493 533.193 118.62 534.222 106.17" fill="black"/>
<path fill-rule="evenodd" clip-rule="evenodd" d="M537.249 106.421L537.34 105.311L536.693 104.405C533.44 99.8496 528.239 99.1693 525.43 99.1693C524.004 99.1693 522.065 99.3227 520.572 99.9909C520.566 100.566 520.563 101.151 520.56 101.746C521.767 100.819 524.198 100.688 525.431 100.688C527.949 100.688 532.599 101.285 535.457 105.288L535.78 105.74L535.736 106.295C534.637 119.582 529.632 128.935 523.153 134.764C523.334 135.297 523.533 135.802 523.749 136.285C530.699 130.254 536.089 120.442 537.249 106.421" fill="black"/>
<path fill-rule="evenodd" clip-rule="evenodd" d="M535.736 106.294L535.78 105.74L535.457 105.288C532.601 101.285 527.949 100.689 525.431 100.689C524.198 100.689 521.767 100.82 520.561 101.746C520.552 104.243 520.572 106.902 520.631 109.619C521.076 107.181 521.334 104.928 521.363 103.116C521.363 102.758 523.123 102.206 525.43 102.206C528.292 102.206 531.998 103.054 534.222 106.17C533.193 118.619 528.632 127.493 522.678 133.131C522.818 133.701 522.979 134.243 523.155 134.765C529.632 128.935 534.637 119.582 535.736 106.294" fill="black"/>
<path fill-rule="evenodd" clip-rule="evenodd" d="M644.238 108.424L645.089 109.615L644.688 111.021C643.573 114.933 642.503 118.614 641.426 122.058C645.784 127.312 649.9 132.072 651.033 137.356C646.691 139.286 643.959 141.537 642.351 143.788C639.456 147.645 639.456 152.307 641.547 155.844C643.844 159.724 647.403 161.382 651.189 161.382C659.326 161.382 668.503 153.713 668.393 143.949C674.503 143.949 680.771 142.34 686.72 138.964C695.881 133.821 709.166 127.088 708.788 108.357C708.58 98.0686 702.496 95.162 697.774 95.162C690.496 95.1635 682.574 102.456 682.574 102.456C703.409 105.004 678.521 132.213 668.232 135.428C667.429 121.604 656.175 112.119 650.228 103.438C649.263 101.991 648.46 100.544 647.816 99.2577C646.068 95.282 648.879 88.1628 655.007 88.1628C655.074 88.1628 655.142 88.1643 655.21 88.1658C657.944 88.3268 660.998 90.8993 662.124 94.2736C662.686 95.9259 663.517 96.6016 664.456 96.6016C667.812 96.6016 672.544 87.9517 671.286 84.3086C668.202 75.7665 661.005 71.9532 653.415 71.9532C640.591 71.9532 626.658 82.8492 629.549 100.227C630.038 99.9441 630.633 99.7679 631.341 99.7679C634.144 99.7679 640.408 103.06 644.238 108.424" fill="black"/>
<path fill-rule="evenodd" clip-rule="evenodd" d="M631.341 102.804C631.138 102.804 631.016 102.854 630.997 102.955C630.934 103.264 630.811 103.84 630.635 104.621C632.45 110.235 635.698 114.946 639.115 119.225C639.975 116.405 640.851 113.406 641.766 110.189C638.251 105.266 632.766 102.804 631.341 102.804" fill="black"/>
<path fill-rule="evenodd" clip-rule="evenodd" d="M631.341 101.286C633.354 101.286 639.295 104.117 643.002 109.306L643.427 109.901L643.227 110.606C642.211 114.172 641.239 117.52 640.276 120.661C640.66 121.131 641.043 121.596 641.426 122.058C642.501 118.614 643.573 114.933 644.688 111.022L645.089 109.614L644.238 108.424C640.407 103.06 634.144 99.7678 631.341 99.7678C630.633 99.7678 630.036 99.944 629.549 100.226C629.584 100.441 629.609 100.65 629.65 100.866C629.717 101.223 629.822 101.558 629.901 101.908C630.199 101.56 630.653 101.286 631.341 101.286" fill="black"/>
<path fill-rule="evenodd" clip-rule="evenodd" d="M630.996 102.955C631.016 102.855 631.137 102.805 631.341 102.805C632.765 102.805 638.25 105.265 641.766 110.188C640.85 113.405 639.974 116.404 639.114 119.226C639.5 119.709 639.887 120.187 640.276 120.661C641.239 117.52 642.211 114.172 643.227 110.606L643.427 109.901L643.002 109.306C639.295 104.117 633.354 101.286 631.341 101.286C630.653 101.286 630.199 101.56 629.901 101.907C630.109 102.834 630.349 103.74 630.634 104.621C630.811 103.839 630.934 103.264 630.996 102.955" fill="black"/>
<defs>
<linearGradient id="paint0_linear" x1="17.3022" y1="175.865" x2="158.77" y2="0.162256" gradientUnits="userSpaceOnUse">
<stop stop-color="#E500AE"/>
<stop offset="0.757" stop-color="#FF3940"/>
</linearGradient>
<linearGradient id="paint1_linear" x1="44.9909" y1="145.802" x2="144.778" y2="45.441" gradientUnits="userSpaceOnUse">
<stop stop-color="#FF00D3"/>
<stop offset="0.581" stop-color="#FF7788"/>
</linearGradient>
<linearGradient id="paint2_linear" x1="64.4267" y1="161.035" x2="148.786" y2="48.442" gradientUnits="userSpaceOnUse">
<stop offset="0.14" stop-color="#FF4CA6"/>
<stop offset="1" stop-color="#FF8955"/>
</linearGradient>
</defs>
</svg>
